HIERARCHY
ROOT Hips
{
	OFFSET 0.00000 0.00000 0.00000
	CHANNELS 6 Xposition Yposition Zposition Zrotation Yrotation Xrotation 
	JOINT LHipJoint
	{
		OFFSET 0 0 0
		CHANNELS 3 Zrotation Yrotation Xrotation
		JOINT LeftUpLeg
		{
			OFFSET 1.62964 -1.40469 0.78906
			CHANNELS 3 Zrotation Yrotation Xrotation
			JOINT LeftLeg
			{
				OFFSET 2.29640 -6.30932 0.00000
				CHANNELS 3 Zrotation Yrotation Xrotation
				JOINT LeftFoot
				{
					OFFSET 2.29451 -6.30412 0.00000
					CHANNELS 3 Zrotation Yrotation Xrotation
					JOINT LeftToeBase
					{
						OFFSET 0.03611 -0.09921 1.56387
						CHANNELS 3 Zrotation Yrotation Xrotation
						End Site
						{
							OFFSET 0.00000 -0.00000 0.80291
						}
					}
				}
			}
		}
	}
	JOINT RHipJoint
	{
		OFFSET 0 0 0
		CHANNELS 3 Zrotation Yrotation Xrotation
		JOINT RightUpLeg
		{
			OFFSET -1.73712 -1.40469 0.78906
			CHANNELS 3 Zrotation Yrotation Xrotation
			JOINT RightLeg
			{
				OFFSET -2.28137 -6.26801 0.00000
				CHANNELS 3 Zrotation Yrotation Xrotation
				JOINT RightFoot
				{
					OFFSET -2.28681 -6.28298 0.00000
					CHANNELS 3 Zrotation Yrotation Xrotation
					JOINT RightToeBase
					{
						OFFSET -0.15927 -0.43759 1.61103
						CHANNELS 3 Zrotation Yrotation Xrotation
						End Site
						{
							OFFSET -0.00000 -0.00000 0.84630
						}
					}
				}
			}
		}
	}
	JOINT LowerBack
	{
		OFFSET 0 0 0
		CHANNELS 3 Zrotation Yrotation Xrotation
		JOINT Spine
		{
			OFFSET -0.04227 2.04338 -0.00225
			CHANNELS 3 Zrotation Yrotation Xrotation
			JOINT Spine1
			{
				OFFSET -0.02148 2.04482 -0.04273
				CHANNELS 3 Zrotation Yrotation Xrotation
				JOINT Neck
				{
					OFFSET 0 0 0
					CHANNELS 3 Zrotation Yrotation Xrotation
					JOINT Neck1
					{
						OFFSET 0.09180 1.44629 0.19359
						CHANNELS 3 Zrotation Yrotation Xrotation
						JOINT Head
						{
							OFFSET 0.00887 1.40645 0.14750
							CHANNELS 3 Zrotation Yrotation Xrotation
							End Site
							{
								OFFSET -0.00669 1.50671 0.03707
							}
						}
					}
				}
				JOINT LeftShoulder
				{
					OFFSET 0 0 0
					CHANNELS 3 Zrotation Yrotation Xrotation
					JOINT LeftArm
					{
						OFFSET 2.17674 1.86763 -0.06520
						CHANNELS 3 Zrotation Yrotation Xrotation
						JOINT LeftForeArm
						{
							OFFSET 4.65776 -0.00000 0.00000
							CHANNELS 3 Zrotation Yrotation Xrotation
							JOINT LeftHand
							{
								OFFSET 3.55539 -0.00000 0.00000
								CHANNELS 3 Zrotation Yrotation Xrotation
								JOINT LeftFingerBase
								{
									OFFSET 0 0 0
									CHANNELS 3 Zrotation Yrotation Xrotation
									JOINT LeftHandIndex1
									{
										OFFSET 0.70726 -0.00000 0.00000
										CHANNELS 3 Zrotation Yrotation Xrotation
										End Site
										{
											OFFSET 0.57022 -0.00000 0.00000
										}
									}
								}
								JOINT LThumb
								{
									OFFSET 0 0 0
									CHANNELS 3 Zrotation Yrotation Xrotation
									End Site
									{
										OFFSET 0.57892 -0.00000 0.57892
									}
								}
							}
						}
					}
				}
				JOINT RightShoulder
				{
					OFFSET 0 0 0
					CHANNELS 3 Zrotation Yrotation Xrotation
					JOINT RightArm
					{
						OFFSET -2.80694 1.55459 -0.32496
						CHANNELS 3 Zrotation Yrotation Xrotation
						JOINT RightForeArm
						{
							OFFSET -4.71925 -0.00000 -0.00000
							CHANNELS 3 Zrotation Yrotation Xrotation
							JOINT RightHand
							{
								OFFSET -3.56990 -0.00000 0.00000
								CHANNELS 3 Zrotation Yrotation Xrotation
								JOINT RightFingerBase
								{
									OFFSET 0 0 0
									CHANNELS 3 Zrotation Yrotation Xrotation
									JOINT RightHandIndex1
									{
										OFFSET -0.50776 -0.00000 0.00000
										CHANNELS 3 Zrotation Yrotation Xrotation
										End Site
										{
											OFFSET -0.40937 -0.00000 0.00000
										}
									}
								}
								JOINT RThumb
								{
									OFFSET 0 0 0
									CHANNELS 3 Zrotation Yrotation Xrotation
									End Site
									{
										OFFSET -0.41562 -0.00000 0.41562
									}
								}
							}
						}
					}
				}
			}
		}
	}
}
MOTION
Frames: 5
Frame Time: .0083333
-1.1258 19.64 20.8481 0 0 0 0 0 0 -21 0 0 0 0 0 0 0 0 0 0 0 0 0 0 21 0 0 0 0 0 0 0 0 0 0 0 0 0 0 0 0 0 0 0 0 0 0 -16 0 0 21 0 0 11 0 0 0 -8 0 0 0 0 0 0 0 0 0 0 0 0 0 0 0 0 0 0 0 0 8 0 0 0 0 0 0 0 0 0 0 0 0 0 0 0 0 0
-1.1258 19.6400 20.8481 177.2110 -1.4718 -154.0750 0.0000 0.0000 0.0000 -23.3140 -15.4460 -20.7667 0.1705 2.6603 7.3345 0.0837 -2.0157 -5.1371 0.1580 2.5611 7.0592 0.0000 0.0000 0.0000 16.9683 12.3011 -23.2028 -0.2318 -3.0985 8.5532 -0.9058 6.1258 -16.9729 -0.7401 5.4956 -15.3276 -8.0474 -2.6056 -25.4388 -0.7268 -1.3670 -0.4090 3.2409 -1.3085 14.0195 -2.9068 -8.9672 -3.0274 3.4429 -11.2038 24.0633 0.8067 -4.6085 8.3220 -0.0000 0.0000 0.0000 -82.9516 1.2687 14.0453 15.4425 -24.7589 -3.4091 -0.0000 0.0000 -22.8843 23.4327 -11.9422 -5.1248 -7.1250 0.0000 -0.0000 -2.6193 17.0077 1.7404 -0.0000 0.0000 0.0000 90.1467 -8.8508 20.2604 -36.4833 45.8427 -15.8683 0.0000 -0.0000 -5.7531 -12.2636 -52.6610 9.8052 7.1250 -0.0000 -0.0000 65.4028 -75.7263 -51.4167
-1.1224 19.6429 20.8430 177.5860 -1.6185 -153.9820 0.0000 0.0000 0.0000 -22.8014 -15.4280 -20.8992 0.1713 2.6659 7.3500 0.1256 -2.5036 -6.2950 1.3470 -7.3477 -20.7498 0.0000 0.0000 0.0000 17.3680 12.6556 -23.0759 -0.2284 -3.0758 8.4899 -0.9299 6.1539 -17.1997 -0.4509 4.3081 -11.9450 -7.6996 -2.5062 -25.5684 -0.6336 -1.3527 -0.5208 3.1550 -1.2806 13.9492 -2.8480 -9.0086 -2.7859 3.3415 -11.2136 24.1561 0.7751 -4.6052 8.3007 0.0000 -0.0000 0.0000 -83.1206 2.8244 21.1929 16.1630 -25.7411 -3.7165 -0.0000 0.0000 -15.6402 6.3676 -8.5636 -0.9520 -7.1250 0.0000 -0.0000 -14.7271 21.4614 8.6001 0.0000 -0.0000 0.0000 90.0391 -8.7813 18.7386 -34.4442 44.4111 -14.4230 0.0000 -0.0000 -7.1767 -10.2599 -45.6759 7.3783 7.1250 -0.0000 -0.0000 45.6204 -71.4793 -30.6165
-1.1207 19.6473 20.8408 177.9150 -1.7868 -153.8270 0.0000 0.0000 0.0000 -22.3159 -15.4426 -21.1467 0.1734 2.6822 7.3951 0.1027 -2.1828 -5.6894 0.3531 -3.8178 -10.5645 0.0000 0.0000 0.0000 17.7362 12.8887 -23.1472 -0.2275 -3.0704 8.4749 -0.9262 5.9691 -17.1660 -0.3844 3.9816 -11.0250 -7.3541 -2.4561 -25.8803 -0.5412 -1.3787 -0.5540 3.0489 -1.2772 14.0790 -2.8506 -9.0370 -2.5073 3.3080 -11.2288 24.0845 0.7775 -4.6172 8.2250 0.0000 0.0000 0.0000 -83.0751 3.4944 24.3770 16.9031 -26.7298 -4.0436 -0.0000 0.0000 -12.6095 15.5976 -7.6737 -2.1348 -7.1250 0.0000 -0.0000 -8.1629 22.0441 4.5476 0.0000 0.0000 0.0000 89.8591 -7.9554 13.3691 -27.4857 38.6384 -9.8009 0.0000 -0.0000 -6.4906 -11.0076 -53.9134 8.9336 7.1250 -0.0000 -0.0000 70.6849 -75.5940 -56.1290
-1.1207 19.6544 20.8396 178.3950 -2.0548 -153.5720 0.0000 0.0000 0.0000 -21.6195 -15.4487 -21.6034 0.1802 2.7341 7.5395 0.1198 -2.5650 -6.1528 1.4497 -7.6111 -21.5389 0.0000 0.0000 0.0000 18.2949 13.0857 -23.3745 -0.2281 -3.0739 8.4846 -0.9387 5.9046 -17.2835 -0.3765 3.9407 -10.9098 -6.8392 -2.4138 -26.2670 -0.3777 -1.4762 -0.6164 2.8997 -1.2975 14.2202 -2.8352 -9.0396 -2.2163 3.3130 -11.2215 23.9565 0.7926 -4.6167 8.1284 0.0000 -0.0000 0.0000 -83.0546 3.7413 25.6608 17.4495 -27.4465 -4.2925 -0.0000 0.0000 -11.2965 19.4174 -8.0230 -2.8166 -7.1250 0.0000 -0.0000 -5.3846 21.4947 3.0503 0.0000 -0.0000 0.0000 89.5589 -7.0988 7.4847 -23.3724 34.4935 -7.3481 0.0000 -0.0000 -1.7160 -9.6106 -53.5551 7.7566 7.1250 -0.0000 -0.0000 69.8667 -74.9790 -54.6850
